<svg width="28" height="28" viewBox="0 0 28 28" fill="none" xmlns="http://www.w3.org/2000/svg">
<path d="M8.68546 24.325C8.2606 24.325 7.9075 24.1794 7.62616 23.8882C7.34482 23.597 7.20415 23.235 7.20415 22.8021C7.20415 22.3693 7.34675 22.0093 7.63196 21.7222C7.91717 21.4352 8.27204 21.2917 8.69655 21.2917C9.12106 21.2917 9.47915 21.4372 9.77081 21.7284C10.0625 22.0196 10.2083 22.3816 10.2083 22.8145C10.2083 23.2474 10.0627 23.6074 9.77154 23.8944C9.48036 24.1815 9.11834 24.325 8.68546 24.325ZM19.4188 24.325C18.9939 24.325 18.6408 24.1794 18.3595 23.8882C18.0782 23.597 17.9375 23.235 17.9375 22.8021C17.9375 22.3693 18.0801 22.0093 18.3653 21.7222C18.6505 21.4352 19.0054 21.2917 19.4299 21.2917C19.8544 21.2917 20.2125 21.4372 20.5041 21.7284C20.7958 22.0196 20.9416 22.3816 20.9416 22.8145C20.9416 23.2474 20.7961 23.6074 20.5049 23.8944C20.2137 24.1815 19.8517 24.325 19.4188 24.325ZM6.67915 6.06666L10.0041 13.0667H17.675C17.85 13.0667 18.0104 13.0229 18.1562 12.9354C18.3021 12.8479 18.4139 12.7264 18.4916 12.5708L21.6416 6.88333C21.7583 6.66944 21.768 6.47985 21.6708 6.31458C21.5736 6.1493 21.4083 6.06666 21.175 6.06666H6.67915ZM6.32915 5.42499H20.9125C21.4375 5.42499 21.8312 5.63402 22.0937 6.05208C22.3562 6.47013 22.3708 6.90277 22.1375 7.34999L19.1146 12.8997C18.9521 13.1471 18.7487 13.3437 18.5045 13.4896C18.2603 13.6354 18.0052 13.7083 17.7393 13.7083H9.44998L7.87498 16.5958C7.73887 16.8292 7.73887 17.0819 7.87498 17.3542C8.01109 17.6264 8.22498 17.7625 8.51665 17.7625H20.9416V18.4042H8.60415C8.00137 18.4042 7.56387 18.1805 7.29165 17.7333C7.01942 17.2861 7.01942 16.8097 7.29165 16.3042L9.18748 12.9208L4.81248 3.73333H2.77081V3.09166H5.22081L6.32915 5.42499Z" fill="#403A09"/>
</svg>
