<svg width="24" height="24" viewBox="0 0 24 24" fill="none" xmlns="http://www.w3.org/2000/svg">
<path d="M12.0015 11.3C12.3616 11.3 12.6681 11.1731 12.9209 10.9194C13.1736 10.6656 13.3 10.3587 13.3 9.99853C13.3 9.63839 13.1731 9.33194 12.9194 9.07918C12.6656 8.82639 12.3587 8.7 11.9986 8.7C11.6384 8.7 11.332 8.82688 11.0792 9.08065C10.8264 9.3344 10.7 9.64134 10.7 10.0015C10.7 10.3616 10.8269 10.6681 11.0807 10.9208C11.3344 11.1736 11.6414 11.3 12.0015 11.3ZM12 20.6583C14.1334 18.825 15.7917 16.9458 16.975 15.0208C18.1584 13.0958 18.75 11.4889 18.75 10.2C18.75 8.16343 18.1012 6.49596 16.8035 5.19758C15.5058 3.89919 13.9047 3.25 12 3.25C10.0954 3.25 8.49423 3.89919 7.19655 5.19758C5.89887 6.49596 5.25002 8.16343 5.25002 10.2C5.25002 11.4889 5.84447 13.0958 7.03335 15.0208C8.22225 16.9458 9.87781 18.825 12 20.6583ZM12 21.5C9.51669 19.2667 7.67086 17.1958 6.46252 15.2875C5.25419 13.3792 4.65002 11.6833 4.65002 10.2C4.65002 7.9 5.39169 6.06667 6.87502 4.7C8.35836 3.33333 10.0667 2.65 12 2.65C13.9334 2.65 15.6417 3.33333 17.125 4.7C18.6084 6.06667 19.35 7.9 19.35 10.2C19.35 11.6833 18.7459 13.3792 17.5375 15.2875C16.3292 17.1958 14.4834 19.2667 12 21.5Z" fill="black"/>
<circle cx="12" cy="10" r="2.7" fill="#FFF159" stroke="black" stroke-width="0.6"/>
</svg>
